<svg xmlns="http://www.w3.org/2000/svg" version="1.1" xmlns:xlink="http://www.w3.org/1999/xlink" xmlns:svgjs="http://svgjs.dev/svgjs" width="1500" height="382" viewBox="0 0 1500 382"><g transform="matrix(1,0,0,1,9.14939497787691,0.5654704841238356)"><svg viewBox="0 0 396 101" data-background-color="#ffffff" preserveAspectRatio="xMidYMid meet" height="382" width="1500" xmlns="http://www.w3.org/2000/svg" xmlns:xlink="http://www.w3.org/1999/xlink"><g id="tight-bounds" transform="matrix(1,0,0,1,0.2400000000000091,-0.12918708296049886)"><svg viewBox="0 0 395.52 101.15002181167783" height="101.15002181167783" width="395.52"><g><svg viewBox="0 0 491.30263792382755 125.64540994672839" height="101.15002181167783" width="395.52"><g transform="matrix(1,0,0,1,95.78263792382756,17.36488661347694)"><svg viewBox="0 0 395.52 90.91563671977451" height="90.91563671977451" width="395.52"><g id="textblocktransform"><svg viewBox="0 0 395.52 90.91563671977451" height="90.91563671977451" width="395.52" id="textblock"><g><svg viewBox="0 0 395.52 50.99766162811875" height="50.99766162811875" width="395.52"><g transform="matrix(1,0,0,1,0,0)"><svg width="395.52" viewBox="2 -34.3 274.53 35.4" height="50.99766162811875" data-palette-color="url(#b8c04675-be0d-4136-a341-a252b38d9754)"></svg></g></svg></g><g transform="matrix(1,0,0,1,0,63.03698559463851)"><svg viewBox="0 0 232.20979199999996 27.87865112513601" height="27.87865112513601" width="232.20979199999996"><g transform="matrix(1,0,0,1,0,0)"><svg width="232.20979199999996" viewBox="0 -38.75 413.51 49.65" height="27.87865112513601" data-palette-color="#ff3737"><path d="M6.6-2.3Q6.3-1.6 6.15-1.05L6.15-1.05Q5.7 0.1 5.35 0.63 5 1.15 4.25 1.15L4.25 1.15 2.85 1.2Q1.6 1.2 0.85 0.68 0.1 0.15 0-1.45L0-1.45Q0.05-1.5 0.5-2.58 0.95-3.65 1.4-5.5L1.4-5.5Q2-7.95 2.6-10.35 3.2-12.75 3.75-15L3.75-15Q4.5-17.95 5.95-23.83 7.4-29.7 8.2-33.15L8.2-33.15Q8.15-33.9 8.1-35.23 8.05-36.55 8.05-37.3L8.05-37.3Q8.2-37.95 9.18-38.35 10.15-38.75 10.95-38.75L10.95-38.75Q12.2-38.75 13.55-37.9 14.9-37.05 14.95-35.85L14.95-35.85 11.2-21.05Q12.55-22.6 14.48-23.23 16.4-23.85 18.05-23.85L18.05-23.85Q20.4-23.85 22.28-22.5 24.15-21.15 25.23-18.93 26.3-16.7 26.3-14.25L26.3-14.25Q26.3-10.65 24.6-7.18 22.9-3.7 19.65-1.48 16.4 0.75 12.05 0.75L12.05 0.75Q10.8 0.75 8.97-0.15 7.15-1.05 6.6-2.3L6.6-2.3ZM7.8-6.45Q8.45-5.3 9.75-4.4 11.05-3.5 12.1-3.5L12.1-3.5Q14.45-3.5 16.4-5.58 18.35-7.65 19.5-10.53 20.65-13.4 20.65-15.7L20.65-15.7Q20.65-17.3 19.8-18.35 18.95-19.4 17.3-19.4L17.3-19.4Q15.85-19.4 14.2-18.75 12.55-18.1 11.28-16.88 10-15.65 9.55-14.05L9.55-14.05 7.8-6.45ZM42.6-35.85L40.5-27.2Q34.85-3.45 33.85-0.05L33.85-0.05Q33.75 0.25 32.82 0.73 31.9 1.2 31.55 1.2L31.55 1.2Q30.15 1.2 28.85 0.5 27.55-0.2 27.45-1.75L27.45-1.75Q27.5-1.85 27.95-2.8 28.4-3.75 28.85-5.5L28.85-5.5Q30-9.8 31.47-15.7 32.95-21.6 33.45-23.6L33.45-23.6 35.8-33.15Q35.75-33.55 35.75-37.3L35.75-37.3Q35.9-37.95 36.87-38.35 37.85-38.75 38.65-38.75L38.65-38.75Q39.9-38.75 41.22-37.9 42.55-37.05 42.6-35.85L42.6-35.85ZM52.3 1.05Q47.9 1.05 45.45-1.95 43-4.95 43-9.6L43-9.6Q43-13.5 44.87-16.95 46.75-20.4 50-22.5 53.25-24.6 57.15-24.6L57.15-24.6Q61-24.6 63.47-22.08 65.95-19.55 65.95-14.65L65.95-14.65Q65.95-11.2 64.05-7.5 62.15-3.8 58.97-1.38 55.8 1.05 52.3 1.05L52.3 1.05ZM53.05-2.95Q54.65-2.95 56.27-4.95 57.9-6.95 58.95-10 60-13.05 60-15.95L60-15.95Q60-20.4 56.3-20.4L56.3-20.4Q54.25-20.4 52.55-18.45 50.85-16.5 49.85-13.63 48.85-10.75 48.85-8.25L48.85-8.25Q48.85-6.8 49.5-5.58 50.15-4.35 51.12-3.65 52.1-2.95 53.05-2.95L53.05-2.95ZM77.69 1.05Q73.29 1.05 70.84-1.95 68.39-4.95 68.39-9.6L68.39-9.6Q68.39-13.5 70.27-16.95 72.14-20.4 75.39-22.5 78.64-24.6 82.54-24.6L82.54-24.6Q86.39-24.6 88.87-22.08 91.34-19.55 91.34-14.65L91.34-14.65Q91.34-11.2 89.44-7.5 87.54-3.8 84.37-1.38 81.19 1.05 77.69 1.05L77.69 1.05ZM78.44-2.95Q80.04-2.95 81.67-4.95 83.29-6.95 84.34-10 85.39-13.05 85.39-15.95L85.39-15.95Q85.39-20.4 81.69-20.4L81.69-20.4Q79.64-20.4 77.94-18.45 76.24-16.5 75.24-13.63 74.24-10.75 74.24-8.25L74.24-8.25Q74.24-6.8 74.89-5.58 75.54-4.35 76.52-3.65 77.49-2.95 78.44-2.95L78.44-2.95ZM115.59-37.05Q115.79-37.8 116.77-38.27 117.74-38.75 118.84-38.75L118.84-38.75Q119.74-38.75 120.79-38.35 121.84-37.95 121.84-37.2L121.84-37.2 118.69-24.9Q114.54-8.75 113.84-5.2L113.84-5.2Q113.54-3.7 113.54-2.9L113.54-2.9Q113.54-1.55 113.84-0.25L113.84-0.25Q113.74 0.05 113.07 0.35 112.39 0.65 111.84 0.65L111.84 0.65Q110.84 0.65 109.64 0.4 108.44 0.15 108.14-0.15L108.14-0.15Q107.69-0.55 107.69-1.75L107.69-1.75Q107.69-2.65 107.89-3.45L107.89-3.45Q106.84-1.95 104.72-0.98 102.59 0 101.29 0L101.29 0Q93.64 0 93.64-8.25L93.64-8.25Q93.64-11.85 95.27-15.45 96.89-19.05 99.92-21.4 102.94-23.75 106.94-23.75L106.94-23.75Q108.04-23.75 109.39-22.88 110.74-22 111.59-20.9L111.59-20.9Q112.69-25.55 113.54-28.65L113.54-28.65Q113.94-30.3 114.47-32.43 114.99-34.55 115.59-37.05L115.59-37.05ZM110.49-16.25Q110.19-17.35 109.07-18.28 107.94-19.2 107.24-19.2L107.24-19.2Q104.94-19.2 102.94-17.7 100.94-16.2 99.77-13.8 98.59-11.4 98.59-8.85L98.59-8.85Q98.59-6.95 99.29-5.45 99.99-3.95 101.44-3.95L101.44-3.95Q102.69-3.95 104.37-4.78 106.04-5.6 107.34-6.93 108.64-8.25 108.94-9.65L108.94-9.65 110.49-16.25ZM154.94-37.05Q155.14-37.8 156.11-38.27 157.09-38.75 158.19-38.75L158.19-38.75Q159.09-38.75 160.14-38.35 161.19-37.95 161.19-37.2L161.19-37.2 158.04-24.9Q153.89-8.75 153.19-5.2L153.19-5.2Q152.89-3.7 152.89-2.9L152.89-2.9Q152.89-1.55 153.19-0.25L153.19-0.25Q153.09 0.05 152.41 0.35 151.74 0.65 151.19 0.65L151.19 0.65Q150.19 0.65 148.99 0.4 147.79 0.15 147.49-0.15L147.49-0.15Q147.04-0.55 147.04-1.75L147.04-1.75Q147.04-2.65 147.24-3.45L147.24-3.45Q146.19-1.95 144.06-0.98 141.94 0 140.64 0L140.64 0Q132.99 0 132.99-8.25L132.99-8.25Q132.99-11.85 134.61-15.45 136.24-19.05 139.26-21.4 142.29-23.75 146.29-23.75L146.29-23.75Q147.39-23.75 148.74-22.88 150.09-22 150.94-20.9L150.94-20.9Q152.04-25.55 152.89-28.65L152.89-28.65Q153.29-30.3 153.81-32.43 154.34-34.55 154.94-37.05L154.94-37.05ZM149.84-16.25Q149.54-17.35 148.41-18.28 147.29-19.2 146.59-19.2L146.59-19.2Q144.29-19.2 142.29-17.7 140.29-16.2 139.11-13.8 137.94-11.4 137.94-8.85L137.94-8.85Q137.94-6.95 138.64-5.45 139.34-3.95 140.79-3.95L140.79-3.95Q142.04-3.95 143.71-4.78 145.39-5.6 146.69-6.93 147.99-8.25 148.29-9.65L148.29-9.65 149.84-16.25ZM168.78 1.05Q164.38 1.05 161.93-1.95 159.48-4.95 159.48-9.6L159.48-9.6Q159.48-13.5 161.36-16.95 163.23-20.4 166.48-22.5 169.73-24.6 173.63-24.6L173.63-24.6Q177.48-24.6 179.96-22.08 182.43-19.55 182.43-14.65L182.43-14.65Q182.43-11.2 180.53-7.5 178.63-3.8 175.46-1.38 172.28 1.05 168.78 1.05L168.78 1.05ZM169.53-2.95Q171.13-2.95 172.76-4.95 174.38-6.95 175.43-10 176.48-13.05 176.48-15.95L176.48-15.95Q176.48-20.4 172.78-20.4L172.78-20.4Q170.73-20.4 169.03-18.45 167.33-16.5 166.33-13.63 165.33-10.75 165.33-8.25L165.33-8.25Q165.33-6.8 165.98-5.58 166.63-4.35 167.61-3.65 168.58-2.95 169.53-2.95L169.53-2.95ZM187.73-22.85Q187.58-23 187.58-23.2L187.58-23.2Q187.58-23.7 188.68-24.03 189.78-24.35 191.73-24.35L191.73-24.35Q193.53-24.35 194.38-23.43 195.23-22.5 195.38-21.2L195.38-21.2 194.48-17.95Q195.53-19.4 197.43-20.73 199.33-22.05 201.28-22.85 203.23-23.65 204.48-23.65L204.48-23.65Q207.13-23.65 208.33-22.68 209.53-21.7 209.53-19.6L209.53-19.6Q206.58-11.9 205.63-3L205.63-3 206.33-0.55Q205.73 0.6 204.66 1.28 203.58 1.95 201.53 1.95L201.53 1.95Q200.33 1.95 199.78 1.15 199.23 0.35 199.23-0.85L199.23-0.85Q199.23-4.2 200.21-8.22 201.18-12.25 202.48-16.45L202.48-16.45Q202.98-18.05 202.98-18.1L202.98-18.1Q202.98-18.8 202.18-18.8L202.18-18.8Q201.08-18.8 198.86-17.25 196.63-15.7 194.28-12.03 191.93-8.35 190.48-2.4L190.48-2.4Q190.38-2.1 190.23-1.3 190.08-0.5 189.43-0.18 188.78 0.15 187.33 0.15L187.33 0.15Q185.68 0.15 184.91-0.2 184.13-0.55 184.13-1.7L184.13-1.7Q184.28-2.4 184.58-3.4L184.58-3.4Q187.48-15.05 189.03-21.35L189.03-21.35 187.73-22.85ZM230.63-2.6Q230.73-1.3 230.98-0.25L230.98-0.25Q230.88 0.05 230.1 0.35 229.33 0.65 228.78 0.65L228.78 0.65Q226.98 0.65 226.2 0.13 225.43-0.4 225.43-1.45L225.43-1.45Q225.43-2.45 225.63-3.45L225.63-3.45Q224.53-1.95 222.4-0.98 220.28 0 218.98 0L218.98 0Q215.63 0 213.4-1.95 211.18-3.9 211.18-8.2L211.18-8.2Q211.18-12.25 213.1-15.83 215.03-19.4 218.43-21.58 221.83-23.75 225.98-23.75L225.98-23.75Q226.78-23.75 228.08-23.33 229.38-22.9 230.7-21.88 232.03-20.85 232.93-19.25L232.93-19.25Q233.33-19.25 233.88-18.85 234.43-18.45 234.43-18.05L234.43-18.05Q234.43-17.6 234.28-17.15L234.28-17.15 230.63-2.6ZM228.38-16.6Q228.08-17.7 227.2-18.45 226.33-19.2 225.63-19.2L225.63-19.2Q223.33-19.2 221.3-17.57 219.28-15.95 218.03-13.55 216.78-11.15 216.78-9L216.78-9Q216.78-6.9 217.28-5.55 217.78-4.2 219.23-4.2L219.23-4.2Q220.48-4.2 222.1-4.95 223.73-5.7 225-6.98 226.28-8.25 226.68-9.65L226.68-9.65 228.38-16.6ZM247.13-18.1L243.98-5.5Q243.98-4.35 244.58-3.68 245.18-3 246.28-3L246.28-3Q247.78-3 248.75-3.88 249.73-4.75 250.83-6.35L250.83-6.35Q251.63-7.5 252.13-8 252.63-8.5 253.28-8.5L253.28-8.5Q254.58-8.5 255.13-8.18 255.68-7.85 255.68-6.85L255.68-6.85Q255.68-6.4 255.58-5.78 255.48-5.15 255.33-4.85L255.33-4.85Q254.13-2.3 251.4-0.45 248.68 1.4 245.23 1.4L245.23 1.4Q241.78 1.4 240.03-0.28 238.28-1.95 238.28-5.05L238.28-5.05Q238.28-5.5 238.73-7.4 239.18-9.3 239.88-11.95L239.88-11.95 241.28-17.65 238.23-17.4Q237.63-17.4 237.33-17.85 237.03-18.3 237.03-18.95L237.03-18.95Q237.03-20.2 237.93-21.45L237.93-21.45Q238.03-21.6 238.93-21.75 239.83-21.9 241.13-22.05L241.13-22.05 242.48-22.2 244.18-29.5Q244.68-30.8 245.7-31.53 246.73-32.25 247.63-32.25L247.63-32.25Q248.63-32.25 249.33-31.65 250.03-31.05 250.08-30.25L250.08-30.25 248.28-22.75Q250.23-23 251.9-23.18 253.58-23.35 254.53-23.35L254.53-23.35Q256.43-23.35 256.43-21.15L256.43-21.15Q256.43-20.3 255.7-19.63 254.98-18.95 254.13-18.8L254.13-18.8 247.13-18.1ZM264.22-29.7Q264.22-31.25 265.2-32.45 266.17-33.65 267.92-33.65L267.92-33.65Q269.77-33.65 271.15-32.5 272.52-31.35 272.52-29.9L272.52-29.9Q272.52-28.45 271.12-27.4 269.72-26.35 267.87-26.35L267.87-26.35Q266.07-26.35 265.15-27.28 264.22-28.2 264.22-29.7L264.22-29.7ZM269.47-20.85Q266.82-10.05 265.42-4.6L265.42-4.6Q265.22-3.8 265.22-2.85L265.22-2.85 265.27-1.45Q265.27-0.6 264.75-0.25 264.22 0.1 262.52 0.15L262.52 0.15Q260.87 0.15 260.02-0.2 259.17-0.55 259.17-1.7L259.17-1.7Q259.17-2.25 260.45-7.55 261.72-12.85 263.92-21.35L263.92-21.35 262.77-22.85Q262.62-23 262.62-23.2L262.62-23.2Q262.62-23.7 263.72-24.03 264.82-24.35 266.77-24.35L266.77-24.35Q268.47-24.35 268.95-23.38 269.42-22.4 269.47-20.85L269.47-20.85ZM281.87 1.05Q277.47 1.05 275.02-1.95 272.57-4.95 272.57-9.6L272.57-9.6Q272.57-13.5 274.45-16.95 276.32-20.4 279.57-22.5 282.82-24.6 286.72-24.6L286.72-24.6Q290.57-24.6 293.05-22.08 295.52-19.55 295.52-14.65L295.52-14.65Q295.52-11.2 293.62-7.5 291.72-3.8 288.55-1.38 285.37 1.05 281.87 1.05L281.87 1.05ZM282.62-2.95Q284.22-2.95 285.85-4.95 287.47-6.95 288.52-10 289.57-13.05 289.57-15.95L289.57-15.95Q289.57-20.4 285.87-20.4L285.87-20.4Q283.82-20.4 282.12-18.45 280.42-16.5 279.42-13.63 278.42-10.75 278.42-8.25L278.42-8.25Q278.42-6.8 279.07-5.58 279.72-4.35 280.7-3.65 281.67-2.95 282.62-2.95L282.62-2.95ZM300.82-22.85Q300.67-23 300.67-23.2L300.67-23.2Q300.67-23.7 301.77-24.03 302.87-24.35 304.82-24.35L304.82-24.35Q306.62-24.35 307.47-23.43 308.32-22.5 308.47-21.2L308.47-21.2 307.57-17.95Q308.62-19.4 310.52-20.73 312.42-22.05 314.37-22.85 316.32-23.65 317.57-23.65L317.57-23.65Q320.22-23.65 321.42-22.68 322.62-21.7 322.62-19.6L322.62-19.6Q319.67-11.9 318.72-3L318.72-3 319.42-0.55Q318.82 0.6 317.74 1.28 316.67 1.95 314.62 1.95L314.62 1.95Q313.42 1.95 312.87 1.15 312.32 0.35 312.32-0.85L312.32-0.85Q312.32-4.2 313.29-8.22 314.27-12.25 315.57-16.45L315.57-16.45Q316.07-18.05 316.07-18.1L316.07-18.1Q316.07-18.8 315.27-18.8L315.27-18.8Q314.17-18.8 311.94-17.25 309.72-15.7 307.37-12.03 305.02-8.35 303.57-2.4L303.57-2.4Q303.47-2.1 303.32-1.3 303.17-0.5 302.52-0.18 301.87 0.15 300.42 0.15L300.42 0.15Q298.77 0.15 297.99-0.2 297.22-0.55 297.22-1.7L297.22-1.7Q297.37-2.4 297.67-3.4L297.67-3.4Q300.57-15.05 302.12-21.35L302.12-21.35 300.82-22.85ZM356.71-2.6Q356.81-1.3 357.06-0.25L357.06-0.25Q356.96 0.05 356.19 0.35 355.41 0.65 354.86 0.65L354.86 0.65Q353.06 0.65 352.29 0.13 351.51-0.4 351.51-1.45L351.51-1.45Q351.51-2.45 351.71-3.45L351.71-3.45Q350.61-1.95 348.49-0.98 346.36 0 345.06 0L345.06 0Q341.71 0 339.49-1.95 337.26-3.9 337.26-8.2L337.26-8.2Q337.26-12.25 339.19-15.83 341.11-19.4 344.51-21.58 347.91-23.75 352.06-23.75L352.06-23.75Q352.86-23.75 354.16-23.33 355.46-22.9 356.79-21.88 358.11-20.85 359.01-19.25L359.01-19.25Q359.41-19.25 359.96-18.85 360.51-18.45 360.51-18.05L360.51-18.05Q360.51-17.6 360.36-17.15L360.36-17.15 356.71-2.6ZM354.46-16.6Q354.16-17.7 353.29-18.45 352.41-19.2 351.71-19.2L351.71-19.2Q349.41-19.2 347.39-17.57 345.36-15.95 344.11-13.55 342.86-11.15 342.86-9L342.86-9Q342.86-6.9 343.36-5.55 343.86-4.2 345.31-4.2L345.31-4.2Q346.56-4.2 348.19-4.95 349.81-5.7 351.09-6.98 352.36-8.25 352.76-9.65L352.76-9.65 354.46-16.6ZM368.26-2.2Q368.21-1.9 366.94 3.28 365.66 8.45 365.16 9.8L365.16 9.8Q364.96 10.35 363.96 10.63 362.96 10.9 362.51 10.9L362.51 10.9Q361.41 10.9 360.69 10.2 359.96 9.5 359.91 8.1L359.91 8.1 363.41-6.25Q365.41-14.1 366.71-19.65L366.71-19.65Q366.71-19.95 366.36-21.25L366.36-21.25Q366.21-22.05 366.06-22.75 365.91-23.45 365.86-23.8L365.86-23.8Q365.96-24.45 366.89-24.85 367.81-25.25 368.61-25.25L368.61-25.25Q369.81-25.25 370.99-24.4 372.16-23.55 372.31-22.35L372.31-22.35 372.16-21.05Q374.41-23.85 377.91-23.85L377.91-23.85Q380.76-23.85 382.84-22.48 384.91-21.1 386.01-18.78 387.11-16.45 387.11-13.65L387.11-13.65Q387.11-9.9 385.66-6.6 384.21-3.3 381.31-1.28 378.41 0.75 374.31 0.75L374.31 0.75Q373.01 0.75 370.96-0.13 368.91-1 368.26-2.2L368.26-2.2ZM369.81-8.55Q369.71-7.95 369.71-7.7L369.71-7.7Q369.76-6.45 370.54-5.5 371.31-4.55 372.36-4.03 373.41-3.5 374.11-3.5L374.11-3.5Q376.31-3.5 377.99-5.18 379.66-6.85 380.56-9.33 381.46-11.8 381.46-14.05L381.46-14.05Q381.46-16.15 380.34-17.78 379.21-19.4 377.51-19.4L377.51-19.4Q375.61-19.4 374.39-18.57 373.16-17.75 371.61-16.05L371.61-16.05 369.81-8.55ZM394.66-2.2Q394.61-1.9 393.33 3.28 392.06 8.45 391.56 9.8L391.56 9.8Q391.36 10.35 390.36 10.63 389.36 10.9 388.91 10.9L388.91 10.9Q387.81 10.9 387.08 10.2 386.36 9.5 386.31 8.1L386.31 8.1 389.81-6.25Q391.81-14.1 393.11-19.65L393.11-19.65Q393.11-19.95 392.76-21.25L392.76-21.25Q392.61-22.05 392.46-22.75 392.31-23.45 392.26-23.8L392.26-23.8Q392.36-24.45 393.28-24.85 394.21-25.25 395.01-25.25L395.01-25.25Q396.21-25.25 397.38-24.4 398.56-23.55 398.71-22.35L398.71-22.35 398.56-21.05Q400.81-23.85 404.31-23.85L404.31-23.85Q407.16-23.85 409.23-22.48 411.31-21.1 412.41-18.78 413.51-16.45 413.51-13.65L413.51-13.65Q413.51-9.9 412.06-6.6 410.61-3.3 407.71-1.28 404.81 0.75 400.71 0.75L400.71 0.75Q399.41 0.75 397.36-0.13 395.31-1 394.66-2.2L394.66-2.2ZM396.21-8.55Q396.11-7.95 396.11-7.7L396.11-7.7Q396.16-6.45 396.93-5.5 397.71-4.55 398.76-4.03 399.81-3.5 400.51-3.5L400.51-3.5Q402.71-3.5 404.38-5.18 406.06-6.85 406.96-9.33 407.86-11.8 407.86-14.05L407.86-14.05Q407.86-16.15 406.73-17.78 405.61-19.4 403.91-19.4L403.91-19.4Q402.01-19.4 400.78-18.57 399.56-17.75 398.01-16.05L398.01-16.05 396.21-8.55Z" opacity="1" transform="matrix(1,0,0,1,0,0)" fill="#ff3737" class="slogan-text-1" data-fill-palette-color="secondary" id="text-1"></path></svg></g></svg></g></svg></g></svg></g><g><svg viewBox="0 0 83.7433139573078 125.64540994672839" height="125.64540994672839" width="83.7433139573078"><g><svg xmlns="http://www.w3.org/2000/svg" data-name="Layer 1" viewBox="12 2 40.00029602860087 60.01498334620743" x="0" y="0" height="125.64540994672839" width="83.7433139573078" class="icon-icon-0" data-fill-palette-color="accent" id="icon-0"><path d="M49 54.142V10a8 8 0 0 0-16 0V54a6.007 6.007 0 0 1-6 6H26a6.007 6.007 0 0 1-6-6V21.92A7.005 7.005 0 0 0 26 15V7a1 1 0 0 0-1-1H20V3a1 1 0 0 0-2 0V6H13a1 1 0 0 0-1 1v8a7.005 7.005 0 0 0 6 6.92V54a8.009 8.009 0 0 0 8 8h1a8.009 8.009 0 0 0 8-8V10a6 6 0 0 1 12 0V54.142a4 4 0 1 0 2 0Z" fill="#ff3737" data-fill-palette-color="accent"></path></svg></g></svg></g></svg></g><defs></defs><mask id="50b144d6-47f7-4c56-83fc-2235b956b8cc"><g id="SvgjsG1501"><svg viewBox="0 0 395.52 101.15002181167783" height="101.15002181167783" width="395.52"><g><svg viewBox="0 0 491.30263792382755 125.64540994672839" height="101.15002181167783" width="395.52"><g transform="matrix(1,0,0,1,95.78263792382756,17.36488661347694)"><svg viewBox="0 0 395.52 90.91563671977451" height="90.91563671977451" width="395.52"><g id="SvgjsG1500"><svg viewBox="0 0 395.52 90.91563671977451" height="90.91563671977451" width="395.52" id="SvgjsSvg1499"><g><svg viewBox="0 0 395.52 50.99766162811875" height="50.99766162811875" width="395.52"><g transform="matrix(1,0,0,1,0,0)"><svg width="395.52" viewBox="2 -34.3 274.53 35.4" height="50.99766162811875" data-palette-color="url(#b8c04675-be0d-4136-a341-a252b38d9754)"><path d="M12.5-34.3Q13.95-34.3 14.7-33.9 15.45-33.5 15.45-32.85L15.45-32.85Q16.4-33 17.13-33.05 17.85-33.1 18.75-33.1L18.75-33.1Q22.35-33.1 24.83-31.35 27.3-29.6 28.53-26.75 29.75-23.9 29.75-20.6L29.75-20.6Q29.75-19.75 29.7-19.35L29.7-19.35Q29.25-13.35 26.7-8.78 24.15-4.2 19.98-1.7 15.8 0.8 10.6 0.8L10.6 0.8Q9.15 0.8 7.05 0.45L7.05 0.45Q6.25 0.3 5.18-0.63 4.1-1.55 3.35-2.75 2.6-3.95 2.6-4.9L2.6-4.9Q2.6-5.45 2.75-5.95L2.75-5.95 8-26.2Q5.15-25.35 3.2-24L3.2-24Q2.6-24.6 2.3-25.5 2-26.4 2-27.35L2-27.35Q2-28.45 2.9-29.3L2.9-29.3Q5.25-30.8 9.4-31.85L9.4-31.85Q10.35-34.3 12.5-34.3L12.5-34.3ZM9-4.75Q10.2-4.45 11.6-4.45L11.6-4.45Q15.1-4.45 17.6-6.38 20.1-8.3 21.53-11.25 22.95-14.2 23.4-17.35L23.4-17.35Q23.6-18.6 23.6-20.15L23.6-20.15Q23.6-23.65 22.05-25.68 20.5-27.7 17.25-27.7L17.25-27.7Q15.85-27.7 14.7-27.5L14.7-27.5Q13.8-23.6 10.9-12.25L10.9-12.25Q9.35-6.15 9-4.75L9-4.75ZM42.7 1.05Q36.75 1.05 33.8-2.8 30.85-6.65 30.85-13.25L30.85-13.25Q30.85-18.7 33.2-23.35 35.55-28 39.75-30.75 43.95-33.5 49.2-33.5L49.2-33.5Q54.3-33.5 57.37-30.03 60.45-26.55 60.45-19.65L60.45-19.65Q60.45-14.75 58.17-9.93 55.9-5.1 51.85-2.02 47.8 1.05 42.7 1.05L42.7 1.05ZM43.4-3.45Q45.85-3.45 48.2-6.2 50.55-8.95 52.02-13.25 53.5-17.55 53.5-22L53.5-22Q53.5-25.4 52.37-26.93 51.25-28.45 48.4-28.45L48.4-28.45Q45.25-28.45 42.8-25.7 40.35-22.95 39-18.85 37.65-14.75 37.65-10.9L37.65-10.9Q37.65-8.65 38.47-6.95 39.3-5.25 40.62-4.35 41.95-3.45 43.4-3.45L43.4-3.45ZM93.2-33.4Q95.05-33.05 95.62-32.83 96.19-32.6 96.4-32.15L96.4-32.15Q95.34-28.1 93.65-20.68 91.95-13.25 91.34-10.7L91.34-10.7Q90.25-5.6 89.3-1.65L89.3-1.65Q88.59 1.1 87.09 1.1L87.09 1.1Q83.15 1.1 82.59-0.5L82.59-0.5 82.5-0.4 74.34-22.2 71.25-9.6Q70.34-6.15 69.3-1.8L69.3-1.8Q68.95-0.35 68.22 0.15 67.5 0.65 65.5 0.65L65.5 0.65Q63.95 0.65 63.22 0.13 62.5-0.4 62.5-1.65L62.5-1.65Q62.5-2.2 62.65-2.7L62.65-2.7 69.5-29.75Q70.05-31.95 70.67-32.68 71.3-33.4 72.95-33.4L72.95-33.4Q74.3-33.4 75.34-33.1 76.4-32.8 76.45-32.2L76.45-32.2 76.45-32.05 84.5-9.75Q87.75-25.45 88.65-28.2L88.65-28.2Q89.34-30.3 90.55-31.7 91.75-33.1 93.2-33.4L93.2-33.4ZM76.4-32.25L76.4-32.25ZM82.5-1.05L82.5-1.05ZM118.79-11.1Q112.24-10 108.34-9.1L108.34-9.1Q107.14-7.2 106.79-6.55L106.79-6.55Q105.74-4.7 104.92-3.48 104.09-2.25 103.14-1.3L103.14-1.3Q102.09-0.25 101.42 0.2 100.74 0.65 99.84 0.65L99.84 0.65Q98.34 0.65 97.22-0.03 96.09-0.7 96.09-1.4L96.09-1.4Q96.19-1.5 97.19-3.63 98.19-5.75 100.89-8.95L100.89-8.95Q100.89-9.35 100.64-9.95 100.39-10.55 100.39-10.65L100.39-10.65Q100.39-12.1 104.94-14.15L104.94-14.15Q107.49-17.95 110.32-21.65 113.14-25.35 117.24-30.4L117.24-30.4Q118.24-31.65 119.79-32.45 121.34-33.25 122.89-33.25L122.89-33.25Q124.49-33.25 125.29-32.95 126.09-32.65 126.32-32.15 126.54-31.65 126.54-30.75L126.54-30.75Q126.34-29.25 126.29-28.5L126.29-28.5Q125.54-22.45 125.17-18.13 124.79-13.8 124.79-9.5L124.79-9.5Q124.79-5.55 125.14-2.25L125.14-2.25Q124.99-1.05 124.09-0.08 123.19 0.9 121.99 0.9L121.99 0.9Q119.69 0.9 118.97-0.25 118.24-1.4 118.24-4.15L118.24-4.15Q118.24-6.15 118.79-11.1L118.79-11.1ZM112.29-14.85Q113.19-15.05 115.04-15.3L115.04-15.3 119.04-15.9Q119.49-22.85 120.09-25.9L120.09-25.9Q118.14-23.6 112.29-14.85L112.29-14.85ZM152.19-6.15Q153.14-5.45 153.44-4.78 153.74-4.1 153.74-3.2L153.74-3.2Q153.74-1.8 151.74-0.85L151.74-0.85Q147.99-0.35 141.24 0.13 134.49 0.6 131.59 0.65L131.59 0.65Q129.79-0.3 129.79-1.75L129.79-1.75Q129.79-2.35 130.39-3.1L130.39-3.1 140.84-16 150.44-27.85Q139.74-27.55 137.29-25.95L137.29-25.95Q136.59-26.5 136.17-27.53 135.74-28.55 135.74-29.4L135.74-29.4Q135.74-30.8 137.64-31.7L137.64-31.7Q141.39-32.2 148.14-32.68 154.89-33.15 157.79-33.2L157.79-33.2Q159.59-32.25 159.59-30.8L159.59-30.8Q159.59-30.2 158.99-29.45L158.99-29.45 139.19-4.95Q147.99-5.5 152.19-6.15L152.19-6.15ZM136.99-2.2L136.99-2.2ZM165.49-25.9Q164.49-26.25 163.96-26.98 163.44-27.7 163.44-28.7L163.44-28.7Q163.44-30.15 165.39-31L165.39-31Q172.54-32.45 179.79-33.05L179.79-33.05Q181.74-32.2 181.74-30.75L181.74-30.75Q181.74-29.85 180.84-29 179.94-28.15 178.79-27.8L178.79-27.8 176.04-27.45Q175.19-23.7 172.14-11.3L172.14-11.3 170.74-5.7 174.59-6.1Q176.54-5.25 176.54-3.8L176.54-3.8Q176.54-2.9 175.64-2.05 174.74-1.2 173.59-0.85L173.59-0.85 171.59-0.6Q164.24 0.2 160.29 1.05L160.29 1.05Q159.29 0.7 158.76-0.03 158.24-0.75 158.24-1.75L158.24-1.75Q158.24-3.2 160.19-4.05L160.19-4.05Q162.69-4.55 163.99-4.75L163.99-4.75 169.49-26.6Q167.44-26.3 165.49-25.9L165.49-25.9ZM192.04 1.05Q186.09 1.05 183.14-2.8 180.19-6.65 180.19-13.25L180.19-13.25Q180.19-18.7 182.54-23.35 184.89-28 189.09-30.75 193.29-33.5 198.54-33.5L198.54-33.5Q203.64-33.5 206.71-30.03 209.79-26.55 209.79-19.65L209.79-19.65Q209.79-14.75 207.51-9.93 205.24-5.1 201.19-2.02 197.14 1.05 192.04 1.05L192.04 1.05ZM192.74-3.45Q195.19-3.45 197.54-6.2 199.89-8.95 201.36-13.25 202.84-17.55 202.84-22L202.84-22Q202.84-25.4 201.71-26.93 200.59-28.45 197.74-28.45L197.74-28.45Q194.59-28.45 192.14-25.7 189.69-22.95 188.34-18.85 186.99-14.75 186.99-10.9L186.99-10.9Q186.99-8.65 187.81-6.95 188.64-5.25 189.96-4.35 191.29-3.45 192.74-3.45L192.74-3.45ZM242.53-33.4Q244.38-33.05 244.96-32.83 245.53-32.6 245.73-32.15L245.73-32.15Q244.68-28.1 242.98-20.68 241.28-13.25 240.68-10.7L240.68-10.7Q239.58-5.6 238.63-1.65L238.63-1.65Q237.93 1.1 236.43 1.1L236.43 1.1Q232.48 1.1 231.93-0.5L231.93-0.5 231.83-0.4 223.68-22.2 220.58-9.6Q219.68-6.15 218.63-1.8L218.63-1.8Q218.28-0.35 217.56 0.15 216.83 0.65 214.83 0.65L214.83 0.65Q213.28 0.65 212.56 0.13 211.83-0.4 211.83-1.65L211.83-1.65Q211.83-2.2 211.98-2.7L211.98-2.7 218.83-29.75Q219.38-31.95 220.01-32.68 220.63-33.4 222.28-33.4L222.28-33.4Q223.63-33.4 224.68-33.1 225.73-32.8 225.78-32.2L225.78-32.2 225.78-32.05 233.83-9.75Q237.08-25.45 237.98-28.2L237.98-28.2Q238.68-30.3 239.88-31.7 241.08-33.1 242.53-33.4L242.53-33.4ZM225.73-32.25L225.73-32.25ZM231.83-1.05L231.83-1.05ZM274.73-33.8Q276.53-32.85 276.53-31.4L276.53-31.4Q276.53-30.5 275.56-29.73 274.58-28.95 273.38-28.65L273.38-28.65 271.18-28.5Q269.68-28.4 267.13-28.23 264.58-28.05 261.13-27.75L261.13-27.75 258.88-18.8Q262.03-19.3 264.11-19.6 266.18-19.9 268.73-20.1L268.73-20.1Q270.68-19.25 270.68-17.8L270.68-17.8Q270.68-16.9 269.78-16.05 268.88-15.2 267.73-14.85L267.73-14.85 264.88-14.55Q260.33-14.05 257.58-13.55L257.58-13.55Q256.98-10.8 255.88-6.6L255.88-6.6 255.48-5.05Q262.13-6.3 268.33-6.8L268.33-6.8Q270.28-5.95 270.28-4.5L270.28-4.5Q270.28-3.6 269.38-2.75 268.48-1.9 267.33-1.55L267.33-1.55Q257.83-0.45 253.93 0.3L253.93 0.3Q253.48 0.6 251.98 0.6L251.98 0.6Q250.58 0.6 249.51-0.7 248.43-2 248.43-3.4L248.43-3.4Q248.43-3.95 248.58-4.45L248.58-4.45 254.28-27 254.13-27Q254.08-27.55 253.43-28.35L253.43-28.35Q253.38-28.45 253.03-28.98 252.68-29.5 252.68-30L252.68-30Q252.78-31.45 254.58-32.3L254.58-32.3Q258.33-32.8 265.08-33.27 271.83-33.75 274.73-33.8L274.73-33.8Z" opacity="1" transform="matrix(1,0,0,1,0,0)" fill="white" class="wordmark-text-0" id="SvgjsPath1498"></path></svg></g></svg></g><g transform="matrix(1,0,0,1,0,63.03698559463851)"><svg viewBox="0 0 232.20979199999996 27.87865112513601" height="27.87865112513601" width="232.20979199999996"><g transform="matrix(1,0,0,1,0,0)"><svg width="232.20979199999996" viewBox="0 -38.75 413.51 49.65" height="27.87865112513601" data-palette-color="#ff3737"><path d="M6.6-2.3Q6.3-1.6 6.15-1.05L6.15-1.05Q5.7 0.1 5.35 0.63 5 1.15 4.25 1.15L4.25 1.15 2.85 1.2Q1.6 1.2 0.85 0.68 0.1 0.15 0-1.45L0-1.45Q0.05-1.5 0.5-2.58 0.95-3.65 1.4-5.5L1.4-5.5Q2-7.95 2.6-10.35 3.2-12.75 3.75-15L3.75-15Q4.5-17.95 5.95-23.83 7.4-29.7 8.2-33.15L8.2-33.15Q8.15-33.9 8.1-35.23 8.05-36.55 8.05-37.3L8.05-37.3Q8.2-37.95 9.18-38.35 10.15-38.75 10.95-38.75L10.95-38.75Q12.2-38.75 13.55-37.9 14.9-37.05 14.95-35.85L14.95-35.85 11.2-21.05Q12.55-22.6 14.48-23.23 16.4-23.85 18.05-23.85L18.05-23.85Q20.4-23.85 22.28-22.5 24.15-21.15 25.23-18.93 26.3-16.7 26.3-14.25L26.3-14.25Q26.3-10.65 24.6-7.18 22.9-3.7 19.65-1.48 16.4 0.75 12.05 0.75L12.05 0.75Q10.8 0.75 8.97-0.15 7.15-1.05 6.6-2.3L6.6-2.3ZM7.8-6.45Q8.45-5.3 9.75-4.4 11.05-3.5 12.1-3.5L12.1-3.5Q14.45-3.5 16.4-5.58 18.35-7.65 19.5-10.53 20.65-13.4 20.65-15.7L20.65-15.7Q20.65-17.3 19.8-18.35 18.95-19.4 17.3-19.4L17.3-19.4Q15.85-19.4 14.2-18.75 12.55-18.1 11.28-16.88 10-15.65 9.55-14.05L9.55-14.05 7.8-6.45ZM42.6-35.85L40.5-27.2Q34.85-3.45 33.85-0.05L33.85-0.05Q33.75 0.25 32.82 0.73 31.9 1.2 31.55 1.2L31.55 1.2Q30.15 1.2 28.85 0.5 27.55-0.2 27.45-1.75L27.45-1.75Q27.5-1.85 27.95-2.8 28.4-3.75 28.85-5.5L28.85-5.5Q30-9.8 31.47-15.7 32.95-21.6 33.45-23.6L33.45-23.6 35.8-33.15Q35.75-33.55 35.75-37.3L35.75-37.3Q35.9-37.95 36.87-38.35 37.85-38.75 38.65-38.75L38.65-38.75Q39.9-38.75 41.22-37.9 42.55-37.05 42.6-35.85L42.6-35.85ZM52.3 1.05Q47.9 1.05 45.45-1.95 43-4.95 43-9.6L43-9.6Q43-13.5 44.87-16.95 46.75-20.4 50-22.5 53.25-24.6 57.15-24.6L57.15-24.6Q61-24.6 63.47-22.08 65.95-19.55 65.95-14.65L65.95-14.65Q65.95-11.2 64.05-7.5 62.15-3.8 58.97-1.38 55.8 1.05 52.3 1.05L52.3 1.05ZM53.05-2.95Q54.65-2.95 56.27-4.95 57.9-6.95 58.95-10 60-13.05 60-15.95L60-15.95Q60-20.4 56.3-20.4L56.3-20.4Q54.25-20.4 52.55-18.45 50.85-16.5 49.85-13.63 48.85-10.75 48.85-8.25L48.85-8.25Q48.85-6.8 49.5-5.58 50.15-4.35 51.12-3.65 52.1-2.95 53.05-2.95L53.05-2.95ZM77.69 1.05Q73.29 1.05 70.84-1.95 68.39-4.95 68.39-9.6L68.39-9.6Q68.39-13.5 70.27-16.95 72.14-20.4 75.39-22.5 78.64-24.6 82.54-24.6L82.54-24.6Q86.39-24.6 88.87-22.08 91.34-19.55 91.34-14.65L91.34-14.65Q91.34-11.2 89.44-7.5 87.54-3.8 84.37-1.38 81.19 1.05 77.69 1.05L77.69 1.05ZM78.44-2.95Q80.04-2.95 81.67-4.95 83.29-6.95 84.34-10 85.39-13.05 85.39-15.95L85.39-15.95Q85.39-20.4 81.69-20.4L81.69-20.4Q79.64-20.4 77.94-18.45 76.24-16.5 75.24-13.63 74.24-10.75 74.24-8.25L74.24-8.25Q74.24-6.8 74.89-5.58 75.54-4.35 76.52-3.65 77.49-2.95 78.44-2.95L78.44-2.95ZM115.59-37.05Q115.79-37.8 116.77-38.27 117.74-38.75 118.84-38.75L118.84-38.75Q119.74-38.75 120.79-38.35 121.84-37.95 121.84-37.2L121.84-37.2 118.69-24.9Q114.54-8.75 113.84-5.2L113.84-5.2Q113.54-3.7 113.54-2.9L113.54-2.9Q113.54-1.55 113.84-0.25L113.84-0.25Q113.74 0.05 113.07 0.35 112.39 0.65 111.84 0.65L111.84 0.65Q110.84 0.65 109.64 0.4 108.44 0.15 108.14-0.15L108.14-0.15Q107.69-0.55 107.69-1.75L107.69-1.75Q107.69-2.65 107.89-3.45L107.89-3.45Q106.84-1.95 104.72-0.98 102.59 0 101.29 0L101.29 0Q93.64 0 93.64-8.25L93.64-8.25Q93.64-11.85 95.27-15.45 96.89-19.05 99.92-21.4 102.94-23.75 106.94-23.75L106.94-23.75Q108.04-23.75 109.39-22.88 110.74-22 111.59-20.9L111.59-20.9Q112.69-25.55 113.54-28.65L113.54-28.65Q113.94-30.3 114.47-32.43 114.99-34.55 115.59-37.05L115.59-37.05ZM110.49-16.25Q110.19-17.35 109.07-18.28 107.94-19.2 107.24-19.2L107.24-19.2Q104.94-19.2 102.94-17.7 100.94-16.2 99.77-13.8 98.59-11.4 98.59-8.85L98.59-8.85Q98.59-6.95 99.29-5.45 99.99-3.95 101.44-3.95L101.44-3.95Q102.69-3.95 104.37-4.78 106.04-5.6 107.34-6.93 108.64-8.25 108.94-9.65L108.94-9.65 110.49-16.25ZM154.94-37.05Q155.14-37.8 156.11-38.27 157.09-38.75 158.19-38.75L158.19-38.75Q159.09-38.75 160.14-38.35 161.19-37.95 161.19-37.2L161.19-37.2 158.04-24.9Q153.89-8.75 153.19-5.2L153.19-5.2Q152.89-3.7 152.89-2.9L152.89-2.9Q152.89-1.55 153.19-0.25L153.19-0.25Q153.09 0.05 152.41 0.35 151.74 0.65 151.19 0.65L151.19 0.65Q150.19 0.65 148.99 0.4 147.79 0.15 147.49-0.15L147.49-0.15Q147.04-0.55 147.04-1.75L147.04-1.75Q147.04-2.65 147.24-3.45L147.24-3.45Q146.19-1.95 144.06-0.98 141.94 0 140.64 0L140.64 0Q132.99 0 132.99-8.25L132.99-8.25Q132.99-11.85 134.61-15.45 136.24-19.05 139.26-21.4 142.29-23.75 146.29-23.75L146.29-23.75Q147.39-23.75 148.74-22.88 150.09-22 150.94-20.9L150.94-20.9Q152.04-25.55 152.89-28.65L152.89-28.65Q153.29-30.3 153.81-32.43 154.34-34.55 154.94-37.05L154.94-37.05ZM149.84-16.25Q149.54-17.35 148.41-18.28 147.29-19.2 146.59-19.2L146.59-19.2Q144.29-19.2 142.29-17.7 140.29-16.2 139.11-13.8 137.94-11.4 137.94-8.85L137.94-8.85Q137.94-6.95 138.64-5.45 139.34-3.95 140.79-3.95L140.79-3.95Q142.04-3.95 143.71-4.78 145.39-5.6 146.69-6.93 147.99-8.25 148.29-9.65L148.29-9.65 149.84-16.25ZM168.78 1.05Q164.38 1.05 161.93-1.95 159.48-4.95 159.48-9.6L159.48-9.6Q159.48-13.5 161.36-16.95 163.23-20.4 166.48-22.5 169.73-24.6 173.63-24.6L173.63-24.6Q177.48-24.6 179.96-22.08 182.43-19.55 182.43-14.65L182.43-14.65Q182.43-11.2 180.53-7.5 178.63-3.8 175.46-1.38 172.28 1.05 168.78 1.05L168.78 1.05ZM169.53-2.95Q171.13-2.95 172.76-4.95 174.38-6.95 175.43-10 176.48-13.05 176.48-15.95L176.48-15.95Q176.48-20.4 172.78-20.4L172.78-20.4Q170.73-20.4 169.03-18.45 167.33-16.5 166.33-13.63 165.33-10.75 165.33-8.25L165.33-8.25Q165.33-6.8 165.98-5.58 166.63-4.35 167.61-3.65 168.58-2.95 169.53-2.95L169.53-2.95ZM187.73-22.85Q187.58-23 187.58-23.2L187.58-23.2Q187.58-23.7 188.68-24.03 189.78-24.35 191.73-24.35L191.73-24.35Q193.53-24.35 194.38-23.43 195.23-22.5 195.38-21.2L195.38-21.2 194.48-17.95Q195.53-19.4 197.43-20.73 199.33-22.05 201.28-22.85 203.23-23.65 204.48-23.65L204.48-23.65Q207.13-23.65 208.33-22.68 209.53-21.7 209.53-19.6L209.53-19.6Q206.58-11.9 205.63-3L205.63-3 206.33-0.55Q205.73 0.6 204.66 1.28 203.58 1.95 201.53 1.95L201.53 1.95Q200.33 1.95 199.78 1.15 199.23 0.35 199.23-0.85L199.23-0.85Q199.23-4.2 200.21-8.22 201.18-12.25 202.48-16.45L202.48-16.45Q202.98-18.05 202.98-18.1L202.98-18.1Q202.98-18.8 202.18-18.8L202.18-18.8Q201.08-18.8 198.86-17.25 196.63-15.7 194.28-12.03 191.93-8.35 190.48-2.4L190.48-2.4Q190.38-2.1 190.23-1.3 190.08-0.5 189.43-0.18 188.78 0.15 187.33 0.15L187.33 0.15Q185.68 0.15 184.91-0.2 184.13-0.55 184.13-1.7L184.13-1.7Q184.28-2.4 184.58-3.4L184.58-3.4Q187.48-15.05 189.03-21.35L189.03-21.35 187.73-22.85ZM230.63-2.6Q230.73-1.3 230.98-0.25L230.98-0.25Q230.88 0.05 230.1 0.35 229.33 0.65 228.78 0.65L228.78 0.65Q226.98 0.65 226.2 0.13 225.43-0.4 225.43-1.45L225.43-1.45Q225.43-2.45 225.63-3.45L225.63-3.45Q224.53-1.95 222.4-0.98 220.28 0 218.98 0L218.98 0Q215.63 0 213.4-1.95 211.18-3.9 211.18-8.2L211.18-8.2Q211.18-12.25 213.1-15.83 215.03-19.4 218.43-21.58 221.83-23.75 225.98-23.75L225.98-23.75Q226.78-23.75 228.08-23.33 229.38-22.9 230.7-21.88 232.03-20.85 232.93-19.25L232.93-19.25Q233.33-19.25 233.88-18.85 234.43-18.45 234.43-18.05L234.43-18.05Q234.43-17.6 234.28-17.15L234.28-17.15 230.63-2.6ZM228.38-16.6Q228.08-17.7 227.2-18.45 226.33-19.2 225.63-19.2L225.63-19.2Q223.33-19.2 221.3-17.57 219.28-15.95 218.03-13.55 216.78-11.15 216.78-9L216.78-9Q216.78-6.9 217.28-5.55 217.78-4.2 219.23-4.2L219.23-4.2Q220.48-4.2 222.1-4.95 223.73-5.7 225-6.98 226.28-8.25 226.68-9.65L226.68-9.65 228.38-16.6ZM247.13-18.1L243.98-5.5Q243.98-4.35 244.58-3.68 245.18-3 246.28-3L246.28-3Q247.78-3 248.75-3.88 249.73-4.75 250.83-6.35L250.83-6.35Q251.63-7.5 252.13-8 252.63-8.5 253.28-8.5L253.28-8.5Q254.58-8.5 255.13-8.18 255.68-7.85 255.68-6.85L255.68-6.85Q255.68-6.4 255.58-5.78 255.48-5.15 255.33-4.85L255.33-4.85Q254.13-2.3 251.4-0.45 248.68 1.4 245.23 1.4L245.23 1.4Q241.78 1.4 240.03-0.28 238.28-1.95 238.28-5.05L238.28-5.05Q238.28-5.5 238.73-7.4 239.18-9.3 239.88-11.95L239.88-11.95 241.28-17.65 238.23-17.4Q237.63-17.4 237.33-17.85 237.03-18.3 237.03-18.95L237.03-18.95Q237.03-20.2 237.93-21.45L237.93-21.45Q238.03-21.6 238.93-21.75 239.83-21.9 241.13-22.05L241.13-22.05 242.48-22.2 244.18-29.5Q244.68-30.8 245.7-31.53 246.73-32.25 247.63-32.25L247.63-32.25Q248.63-32.25 249.33-31.65 250.03-31.05 250.08-30.25L250.08-30.25 248.28-22.75Q250.23-23 251.9-23.18 253.58-23.35 254.53-23.35L254.53-23.35Q256.43-23.35 256.43-21.15L256.43-21.15Q256.43-20.3 255.7-19.63 254.98-18.95 254.13-18.8L254.13-18.8 247.13-18.1ZM264.22-29.7Q264.22-31.25 265.2-32.45 266.17-33.65 267.92-33.65L267.92-33.65Q269.77-33.65 271.15-32.5 272.52-31.35 272.52-29.9L272.52-29.9Q272.52-28.45 271.12-27.4 269.72-26.35 267.87-26.35L267.87-26.35Q266.07-26.35 265.15-27.28 264.22-28.2 264.22-29.7L264.22-29.7ZM269.47-20.85Q266.82-10.05 265.42-4.6L265.42-4.6Q265.22-3.8 265.22-2.85L265.22-2.85 265.27-1.45Q265.27-0.6 264.75-0.25 264.22 0.1 262.52 0.15L262.52 0.15Q260.87 0.15 260.02-0.2 259.17-0.55 259.17-1.7L259.17-1.7Q259.17-2.25 260.45-7.55 261.72-12.85 263.92-21.35L263.92-21.35 262.77-22.85Q262.62-23 262.62-23.2L262.62-23.2Q262.62-23.7 263.72-24.03 264.82-24.35 266.77-24.35L266.77-24.35Q268.47-24.35 268.95-23.38 269.42-22.4 269.47-20.85L269.47-20.85ZM281.87 1.05Q277.47 1.05 275.02-1.95 272.57-4.95 272.57-9.6L272.57-9.6Q272.57-13.5 274.45-16.95 276.32-20.4 279.57-22.5 282.82-24.6 286.72-24.6L286.72-24.6Q290.57-24.6 293.05-22.08 295.52-19.55 295.52-14.65L295.52-14.65Q295.52-11.2 293.62-7.5 291.72-3.8 288.55-1.38 285.37 1.05 281.87 1.05L281.87 1.05ZM282.62-2.95Q284.22-2.95 285.85-4.95 287.47-6.95 288.52-10 289.57-13.05 289.57-15.95L289.57-15.95Q289.57-20.4 285.87-20.4L285.87-20.4Q283.82-20.4 282.12-18.45 280.42-16.5 279.42-13.63 278.42-10.75 278.42-8.25L278.42-8.25Q278.42-6.8 279.07-5.58 279.72-4.35 280.7-3.65 281.67-2.95 282.62-2.95L282.62-2.95ZM300.82-22.85Q300.67-23 300.67-23.2L300.67-23.2Q300.67-23.7 301.77-24.03 302.87-24.35 304.82-24.35L304.82-24.35Q306.62-24.35 307.47-23.43 308.32-22.5 308.47-21.2L308.47-21.2 307.57-17.95Q308.62-19.4 310.52-20.73 312.42-22.05 314.37-22.85 316.32-23.65 317.57-23.65L317.57-23.65Q320.22-23.65 321.42-22.68 322.62-21.7 322.62-19.6L322.62-19.6Q319.67-11.9 318.72-3L318.72-3 319.42-0.55Q318.82 0.6 317.74 1.28 316.67 1.95 314.62 1.95L314.62 1.95Q313.42 1.95 312.87 1.15 312.32 0.35 312.32-0.85L312.32-0.85Q312.32-4.2 313.29-8.22 314.27-12.25 315.57-16.45L315.57-16.45Q316.07-18.05 316.07-18.1L316.07-18.1Q316.07-18.8 315.27-18.8L315.27-18.8Q314.17-18.8 311.94-17.25 309.72-15.7 307.37-12.03 305.02-8.35 303.57-2.4L303.57-2.4Q303.47-2.1 303.32-1.3 303.17-0.5 302.52-0.18 301.87 0.15 300.42 0.15L300.42 0.15Q298.77 0.15 297.99-0.2 297.22-0.55 297.22-1.7L297.22-1.7Q297.37-2.4 297.67-3.4L297.67-3.4Q300.57-15.05 302.12-21.35L302.12-21.35 300.82-22.85ZM356.71-2.6Q356.81-1.3 357.06-0.25L357.06-0.25Q356.96 0.05 356.19 0.35 355.41 0.65 354.86 0.65L354.86 0.65Q353.06 0.65 352.29 0.13 351.51-0.4 351.51-1.45L351.51-1.45Q351.51-2.45 351.71-3.45L351.71-3.45Q350.61-1.95 348.49-0.98 346.36 0 345.06 0L345.06 0Q341.71 0 339.49-1.95 337.26-3.9 337.26-8.2L337.26-8.2Q337.26-12.25 339.19-15.83 341.11-19.4 344.51-21.58 347.91-23.75 352.06-23.75L352.06-23.75Q352.86-23.75 354.16-23.33 355.46-22.9 356.79-21.88 358.11-20.85 359.01-19.25L359.01-19.25Q359.41-19.25 359.96-18.85 360.51-18.45 360.51-18.05L360.51-18.05Q360.51-17.6 360.36-17.15L360.36-17.15 356.71-2.6ZM354.46-16.6Q354.16-17.7 353.29-18.45 352.41-19.2 351.71-19.2L351.71-19.2Q349.41-19.2 347.39-17.57 345.36-15.95 344.11-13.55 342.86-11.15 342.86-9L342.86-9Q342.86-6.9 343.36-5.55 343.86-4.2 345.31-4.2L345.31-4.2Q346.56-4.2 348.19-4.95 349.81-5.7 351.09-6.98 352.36-8.25 352.76-9.65L352.76-9.65 354.46-16.6ZM368.26-2.2Q368.21-1.9 366.94 3.28 365.66 8.45 365.16 9.8L365.16 9.8Q364.96 10.35 363.96 10.63 362.96 10.9 362.51 10.9L362.51 10.9Q361.41 10.9 360.69 10.2 359.96 9.5 359.91 8.1L359.91 8.1 363.41-6.25Q365.41-14.1 366.71-19.65L366.71-19.65Q366.71-19.95 366.36-21.25L366.36-21.25Q366.21-22.05 366.06-22.75 365.91-23.45 365.86-23.8L365.86-23.8Q365.96-24.45 366.89-24.85 367.81-25.25 368.61-25.25L368.61-25.25Q369.81-25.25 370.99-24.4 372.16-23.55 372.31-22.35L372.31-22.35 372.16-21.05Q374.41-23.85 377.91-23.85L377.91-23.85Q380.76-23.85 382.84-22.48 384.91-21.1 386.01-18.78 387.11-16.45 387.11-13.65L387.11-13.65Q387.11-9.9 385.66-6.6 384.21-3.3 381.31-1.28 378.41 0.75 374.31 0.75L374.31 0.75Q373.01 0.75 370.96-0.13 368.91-1 368.26-2.2L368.26-2.2ZM369.81-8.55Q369.71-7.95 369.71-7.7L369.71-7.7Q369.76-6.45 370.54-5.5 371.31-4.55 372.36-4.03 373.41-3.5 374.11-3.5L374.11-3.5Q376.31-3.5 377.99-5.18 379.66-6.85 380.56-9.33 381.46-11.8 381.46-14.05L381.46-14.05Q381.46-16.15 380.34-17.78 379.21-19.4 377.51-19.4L377.51-19.4Q375.61-19.4 374.39-18.57 373.16-17.75 371.61-16.05L371.61-16.05 369.81-8.55ZM394.66-2.2Q394.61-1.9 393.33 3.28 392.06 8.45 391.56 9.8L391.56 9.8Q391.36 10.35 390.36 10.63 389.36 10.9 388.91 10.9L388.91 10.9Q387.81 10.9 387.08 10.2 386.36 9.5 386.31 8.1L386.31 8.1 389.81-6.25Q391.81-14.1 393.11-19.65L393.11-19.65Q393.11-19.95 392.76-21.25L392.76-21.25Q392.61-22.05 392.46-22.75 392.31-23.45 392.26-23.8L392.26-23.8Q392.36-24.45 393.28-24.85 394.21-25.25 395.01-25.25L395.01-25.25Q396.21-25.25 397.38-24.4 398.56-23.55 398.71-22.35L398.71-22.35 398.56-21.05Q400.81-23.85 404.31-23.85L404.31-23.85Q407.16-23.85 409.23-22.48 411.31-21.1 412.41-18.78 413.51-16.45 413.51-13.65L413.51-13.65Q413.51-9.9 412.06-6.6 410.61-3.3 407.71-1.28 404.81 0.75 400.71 0.75L400.71 0.75Q399.41 0.75 397.36-0.13 395.31-1 394.66-2.2L394.66-2.2ZM396.21-8.55Q396.11-7.95 396.11-7.7L396.11-7.7Q396.16-6.45 396.93-5.5 397.71-4.55 398.76-4.03 399.81-3.5 400.51-3.5L400.51-3.5Q402.71-3.5 404.38-5.18 406.06-6.85 406.96-9.33 407.86-11.8 407.86-14.05L407.86-14.05Q407.86-16.15 406.73-17.78 405.61-19.4 403.91-19.4L403.91-19.4Q402.01-19.4 400.78-18.57 399.56-17.75 398.01-16.05L398.01-16.05 396.21-8.55Z" opacity="1" transform="matrix(1,0,0,1,0,0)" fill="black" class="slogan-text-1" id="SvgjsPath1497"></path></svg></g></svg></g></svg></g></svg></g><g><svg viewBox="0 0 83.7433139573078 125.64540994672839" height="125.64540994672839" width="83.7433139573078"><g><svg xmlns="http://www.w3.org/2000/svg" data-name="Layer 1" viewBox="12 2 40.00029602860087 60.01498334620743" x="0" y="0" height="125.64540994672839" width="83.7433139573078" class="icon-icon-0" data-fill-palette-color="accent" id="SvgjsSvg1496"><path d="M49 54.142V10a8 8 0 0 0-16 0V54a6.007 6.007 0 0 1-6 6H26a6.007 6.007 0 0 1-6-6V21.92A7.005 7.005 0 0 0 26 15V7a1 1 0 0 0-1-1H20V3a1 1 0 0 0-2 0V6H13a1 1 0 0 0-1 1v8a7.005 7.005 0 0 0 6 6.92V54a8.009 8.009 0 0 0 8 8h1a8.009 8.009 0 0 0 8-8V10a6 6 0 0 1 12 0V54.142a4 4 0 1 0 2 0Z" fill="black"></path></svg></g></svg></g></svg></g><defs><mask></mask></defs></svg><rect width="395.52" height="101.15002181167783" fill="black" stroke="none" visibility="hidden"></rect></g></mask><linearGradient x1="0.054" x2="0.941" y1="0.5" y2="0.5" id="b8c04675-be0d-4136-a341-a252b38d9754"><stop stop-color="#26282a" offset="0"></stop><stop stop-color="#9e9fa0" offset="0.498"></stop><stop stop-color="#26282a" offset="1"></stop></linearGradient><rect width="395.75410032766473" height="101.258374165921" fill="url(#b8c04675-be0d-4136-a341-a252b38d9754)" mask="url(#50b144d6-47f7-4c56-83fc-2235b956b8cc)" data-fill-palette-color="primary"></rect></svg><rect width="395.52" height="101.15002181167783" fill="none" stroke="none" visibility="hidden"></rect></g></svg></g></svg>